<mxfile host="app.diagrams.net" modified="2024-03-14T22:29:01.523Z" agent="Mozilla/5.0 (Windows NT 10.0; Win64; x64) AppleWebKit/537.36 (KHTML, like Gecko) Chrome/122.0.0.0 Safari/537.36" etag="w5bwhVcgpdgib8ijeL4z" version="24.0.6" type="device">
  <diagram id="R2lEEEUBdFMjLlhIrx00" name="Page-1">
    <mxGraphModel dx="2140" dy="1622" grid="1" gridSize="10" guides="1" tooltips="1" connect="1" arrows="1" fold="1" page="1" pageScale="1" pageWidth="850" pageHeight="1100" background="#9ECCC4" math="0" shadow="1" extFonts="Permanent Marker^https://fonts.googleapis.com/css?family=Permanent+Marker">
      <root>
        <mxCell id="0" />
        <mxCell id="1" parent="0" />
        <mxCell id="QwfjyQOuluvTNZlcwb4u-74" value="Favoriler" style="swimlane;fontStyle=1;align=center;verticalAlign=top;childLayout=stackLayout;horizontal=1;startSize=26;horizontalStack=0;resizeParent=1;resizeParentMax=0;resizeLast=0;collapsible=1;marginBottom=0;whiteSpace=wrap;html=1;fillColor=#4d5d53;gradientColor=#7ea6e0;strokeColor=#00CC00;shadow=0;" parent="1" vertex="1">
          <mxGeometry x="120" y="520" width="160" height="100" as="geometry" />
        </mxCell>
        <mxCell id="QwfjyQOuluvTNZlcwb4u-75" value="" style="text;align=left;verticalAlign=top;spacingLeft=4;spacingRight=4;overflow=hidden;rotatable=0;points=[[0,0.5],[1,0.5]];portConstraint=eastwest;whiteSpace=wrap;html=1;fillColor=#4d5d53;gradientColor=#7ea6e0;strokeColor=#00CC00;shadow=0;" parent="QwfjyQOuluvTNZlcwb4u-74" vertex="1">
          <mxGeometry y="26" width="160" height="26" as="geometry" />
        </mxCell>
        <mxCell id="QwfjyQOuluvTNZlcwb4u-76" value="" style="line;strokeWidth=1;align=left;verticalAlign=middle;spacingTop=-1;spacingLeft=3;spacingRight=3;rotatable=0;labelPosition=right;points=[];portConstraint=eastwest;fillColor=#4d5d53;gradientColor=#7ea6e0;strokeColor=#00CC00;shadow=0;" parent="QwfjyQOuluvTNZlcwb4u-74" vertex="1">
          <mxGeometry y="52" width="160" height="8" as="geometry" />
        </mxCell>
        <mxCell id="QwfjyQOuluvTNZlcwb4u-77" value="+favoriEkle(): void&lt;br&gt;+favoriSil(): void" style="text;align=left;verticalAlign=top;spacingLeft=4;spacingRight=4;overflow=hidden;rotatable=0;points=[[0,0.5],[1,0.5]];portConstraint=eastwest;whiteSpace=wrap;html=1;fillColor=#4d5d53;gradientColor=#7ea6e0;strokeColor=#00CC00;shadow=0;" parent="QwfjyQOuluvTNZlcwb4u-74" vertex="1">
          <mxGeometry y="60" width="160" height="40" as="geometry" />
        </mxCell>
        <mxCell id="QwfjyQOuluvTNZlcwb4u-99" value="" style="triangle;whiteSpace=wrap;html=1;direction=east;fillColor=#4d5d53;gradientColor=#7ea6e0;strokeColor=#00CC00;shadow=0;" parent="1" vertex="1">
          <mxGeometry x="100" y="384.26" width="20" height="32.75" as="geometry" />
        </mxCell>
        <mxCell id="QwfjyQOuluvTNZlcwb4u-103" value="" style="endArrow=none;html=1;rounded=0;fillColor=#4d5d53;gradientColor=#b3b3b3;strokeColor=#00CC00;shadow=0;" parent="1" edge="1">
          <mxGeometry width="50" height="50" relative="1" as="geometry">
            <mxPoint x="100" y="400.13" as="sourcePoint" />
            <mxPoint x="80" y="400" as="targetPoint" />
          </mxGeometry>
        </mxCell>
        <mxCell id="QwfjyQOuluvTNZlcwb4u-105" value="Kadın" style="html=1;whiteSpace=wrap;fillColor=#4d5d53;gradientColor=#7ea6e0;strokeColor=#00CC00;shadow=0;" parent="1" vertex="1">
          <mxGeometry x="-50" y="384.26" width="90" height="30" as="geometry" />
        </mxCell>
        <mxCell id="QwfjyQOuluvTNZlcwb4u-107" value="İndirim" style="html=1;whiteSpace=wrap;fillColor=#4d5d53;gradientColor=#7ea6e0;strokeColor=#00CC00;shadow=0;" parent="1" vertex="1">
          <mxGeometry x="-50" y="430" width="90" height="30" as="geometry" />
        </mxCell>
        <mxCell id="QwfjyQOuluvTNZlcwb4u-108" value="Erkek" style="html=1;whiteSpace=wrap;fillColor=#4d5d53;gradientColor=#7ea6e0;strokeColor=#00CC00;shadow=0;" parent="1" vertex="1">
          <mxGeometry x="-50" y="344" width="90" height="30" as="geometry" />
        </mxCell>
        <mxCell id="FvNM7wmLF5Pf9MOmdUOy-1" value="Ayakkabı Sitesi Yönetim Sistemi" style="swimlane;fontStyle=1;align=center;verticalAlign=top;childLayout=stackLayout;horizontal=1;startSize=40;horizontalStack=0;resizeParent=1;resizeParentMax=0;resizeLast=0;collapsible=1;marginBottom=0;whiteSpace=wrap;html=1;fillColor=#4d5d53;gradientColor=#7ea6e0;strokeColor=#00CC00;shadow=0;" parent="1" vertex="1">
          <mxGeometry x="120" y="40" width="160" height="144" as="geometry" />
        </mxCell>
        <mxCell id="FvNM7wmLF5Pf9MOmdUOy-2" value="-ayakkabiadi: String&lt;br&gt;+marka: String&lt;br&gt;+fiyat: String" style="text;strokeColor=#00CC00;fillColor=#4d5d53;align=left;verticalAlign=top;spacingLeft=4;spacingRight=4;overflow=hidden;rotatable=0;points=[[0,0.5],[1,0.5]];portConstraint=eastwest;whiteSpace=wrap;html=1;gradientColor=#7ea6e0;shadow=0;" parent="FvNM7wmLF5Pf9MOmdUOy-1" vertex="1">
          <mxGeometry y="40" width="160" height="50" as="geometry" />
        </mxCell>
        <mxCell id="FvNM7wmLF5Pf9MOmdUOy-3" value="" style="line;strokeWidth=1;fillColor=#4d5d53;align=left;verticalAlign=middle;spacingTop=-1;spacingLeft=3;spacingRight=3;rotatable=0;labelPosition=right;points=[];portConstraint=eastwest;strokeColor=#00CC00;gradientColor=#7ea6e0;shadow=0;" parent="FvNM7wmLF5Pf9MOmdUOy-1" vertex="1">
          <mxGeometry y="90" width="160" height="8" as="geometry" />
        </mxCell>
        <mxCell id="FvNM7wmLF5Pf9MOmdUOy-4" value="" style="text;strokeColor=#00CC00;fillColor=#4d5d53;align=left;verticalAlign=top;spacingLeft=4;spacingRight=4;overflow=hidden;rotatable=0;points=[[0,0.5],[1,0.5]];portConstraint=eastwest;whiteSpace=wrap;html=1;gradientColor=#7ea6e0;shadow=0;" parent="FvNM7wmLF5Pf9MOmdUOy-1" vertex="1">
          <mxGeometry y="98" width="160" height="46" as="geometry" />
        </mxCell>
        <mxCell id="FvNM7wmLF5Pf9MOmdUOy-9" value="Kayıt Girişi" style="swimlane;fontStyle=1;align=center;verticalAlign=top;childLayout=stackLayout;horizontal=1;startSize=26;horizontalStack=0;resizeParent=1;resizeParentMax=0;resizeLast=0;collapsible=1;marginBottom=0;whiteSpace=wrap;html=1;fillColor=#4d5d53;gradientColor=#7ea6e0;strokeColor=#00CC00;shadow=0;" parent="1" vertex="1">
          <mxGeometry x="400" y="40" width="160" height="124" as="geometry" />
        </mxCell>
        <mxCell id="FvNM7wmLF5Pf9MOmdUOy-10" value="-kadi: String&lt;br style=&quot;border-color: var(--border-color);&quot;&gt;-ksoyadi: String&lt;br&gt;- e-mail: String&lt;br style=&quot;border-color: var(--border-color);&quot;&gt;- sifre: String" style="text;strokeColor=#00CC00;fillColor=#4d5d53;align=left;verticalAlign=top;spacingLeft=4;spacingRight=4;overflow=hidden;rotatable=0;points=[[0,0.5],[1,0.5]];portConstraint=eastwest;whiteSpace=wrap;html=1;gradientColor=#7ea6e0;shadow=0;" parent="FvNM7wmLF5Pf9MOmdUOy-9" vertex="1">
          <mxGeometry y="26" width="160" height="64" as="geometry" />
        </mxCell>
        <mxCell id="FvNM7wmLF5Pf9MOmdUOy-11" value="" style="line;strokeWidth=1;fillColor=#4d5d53;align=left;verticalAlign=middle;spacingTop=-1;spacingLeft=3;spacingRight=3;rotatable=0;labelPosition=right;points=[];portConstraint=eastwest;strokeColor=#00CC00;gradientColor=#7ea6e0;shadow=0;" parent="FvNM7wmLF5Pf9MOmdUOy-9" vertex="1">
          <mxGeometry y="90" width="160" height="8" as="geometry" />
        </mxCell>
        <mxCell id="FvNM7wmLF5Pf9MOmdUOy-12" value="+sifreOlustur(string): String" style="text;strokeColor=#00CC00;fillColor=#4d5d53;align=left;verticalAlign=top;spacingLeft=4;spacingRight=4;overflow=hidden;rotatable=0;points=[[0,0.5],[1,0.5]];portConstraint=eastwest;whiteSpace=wrap;html=1;gradientColor=#7ea6e0;shadow=0;" parent="FvNM7wmLF5Pf9MOmdUOy-9" vertex="1">
          <mxGeometry y="98" width="160" height="26" as="geometry" />
        </mxCell>
        <mxCell id="FvNM7wmLF5Pf9MOmdUOy-13" value="Seçenekler" style="swimlane;fontStyle=1;align=center;verticalAlign=top;childLayout=stackLayout;horizontal=1;startSize=26;horizontalStack=0;resizeParent=1;resizeParentMax=0;resizeLast=0;collapsible=1;marginBottom=0;whiteSpace=wrap;html=1;fillColor=#4d5d53;gradientColor=#7ea6e0;strokeColor=#00CC00;shadow=0;" parent="1" vertex="1">
          <mxGeometry x="120" y="361.01" width="160" height="86" as="geometry" />
        </mxCell>
        <mxCell id="FvNM7wmLF5Pf9MOmdUOy-14" value="" style="text;align=left;verticalAlign=top;spacingLeft=4;spacingRight=4;overflow=hidden;rotatable=0;points=[[0,0.5],[1,0.5]];portConstraint=eastwest;whiteSpace=wrap;html=1;fillColor=#4d5d53;gradientColor=#7ea6e0;strokeColor=#00CC00;shadow=0;" parent="FvNM7wmLF5Pf9MOmdUOy-13" vertex="1">
          <mxGeometry y="26" width="160" height="26" as="geometry" />
        </mxCell>
        <mxCell id="FvNM7wmLF5Pf9MOmdUOy-15" value="" style="line;strokeWidth=1;align=left;verticalAlign=middle;spacingTop=-1;spacingLeft=3;spacingRight=3;rotatable=0;labelPosition=right;points=[];portConstraint=eastwest;fillColor=#4d5d53;gradientColor=#7ea6e0;strokeColor=#00CC00;shadow=0;" parent="FvNM7wmLF5Pf9MOmdUOy-13" vertex="1">
          <mxGeometry y="52" width="160" height="8" as="geometry" />
        </mxCell>
        <mxCell id="FvNM7wmLF5Pf9MOmdUOy-16" value="" style="text;align=left;verticalAlign=top;spacingLeft=4;spacingRight=4;overflow=hidden;rotatable=0;points=[[0,0.5],[1,0.5]];portConstraint=eastwest;whiteSpace=wrap;html=1;fillColor=#4d5d53;gradientColor=#7ea6e0;strokeColor=#00CC00;shadow=0;" parent="FvNM7wmLF5Pf9MOmdUOy-13" vertex="1">
          <mxGeometry y="60" width="160" height="26" as="geometry" />
        </mxCell>
        <mxCell id="FvNM7wmLF5Pf9MOmdUOy-17" value="Ayakkabı Arama" style="swimlane;fontStyle=1;align=center;verticalAlign=top;childLayout=stackLayout;horizontal=1;startSize=26;horizontalStack=0;resizeParent=1;resizeParentMax=0;resizeLast=0;collapsible=1;marginBottom=0;whiteSpace=wrap;html=1;fillColor=#4d5d53;gradientColor=#7ea6e0;strokeColor=#00CC00;shadow=0;" parent="1" vertex="1">
          <mxGeometry x="120" y="200" width="160" height="86" as="geometry" />
        </mxCell>
        <mxCell id="FvNM7wmLF5Pf9MOmdUOy-18" value="" style="text;align=left;verticalAlign=top;spacingLeft=4;spacingRight=4;overflow=hidden;rotatable=0;points=[[0,0.5],[1,0.5]];portConstraint=eastwest;whiteSpace=wrap;html=1;fillColor=#4d5d53;gradientColor=#7ea6e0;strokeColor=#00CC00;shadow=0;" parent="FvNM7wmLF5Pf9MOmdUOy-17" vertex="1">
          <mxGeometry y="26" width="160" height="26" as="geometry" />
        </mxCell>
        <mxCell id="FvNM7wmLF5Pf9MOmdUOy-19" value="" style="line;strokeWidth=1;align=left;verticalAlign=middle;spacingTop=-1;spacingLeft=3;spacingRight=3;rotatable=0;labelPosition=right;points=[];portConstraint=eastwest;fillColor=#4d5d53;gradientColor=#7ea6e0;strokeColor=#00CC00;shadow=0;" parent="FvNM7wmLF5Pf9MOmdUOy-17" vertex="1">
          <mxGeometry y="52" width="160" height="8" as="geometry" />
        </mxCell>
        <mxCell id="FvNM7wmLF5Pf9MOmdUOy-20" value="Listele(string): String&amp;nbsp;" style="text;align=left;verticalAlign=top;spacingLeft=4;spacingRight=4;overflow=hidden;rotatable=0;points=[[0,0.5],[1,0.5]];portConstraint=eastwest;whiteSpace=wrap;html=1;fillColor=#4d5d53;gradientColor=#7ea6e0;strokeColor=#00CC00;shadow=0;" parent="FvNM7wmLF5Pf9MOmdUOy-17" vertex="1">
          <mxGeometry y="60" width="160" height="26" as="geometry" />
        </mxCell>
        <mxCell id="FvNM7wmLF5Pf9MOmdUOy-21" value="Ayakkabı Listesi" style="swimlane;fontStyle=1;align=center;verticalAlign=top;childLayout=stackLayout;horizontal=1;startSize=26;horizontalStack=0;resizeParent=1;resizeParentMax=0;resizeLast=0;collapsible=1;marginBottom=0;whiteSpace=wrap;html=1;fillColor=#4d5d53;gradientColor=#7ea6e0;strokeColor=#00CC00;shadow=0;" parent="1" vertex="1">
          <mxGeometry x="400" y="520" width="160" height="86" as="geometry" />
        </mxCell>
        <mxCell id="FvNM7wmLF5Pf9MOmdUOy-22" value="" style="text;align=left;verticalAlign=top;spacingLeft=4;spacingRight=4;overflow=hidden;rotatable=0;points=[[0,0.5],[1,0.5]];portConstraint=eastwest;whiteSpace=wrap;html=1;fillColor=#4d5d53;gradientColor=#7ea6e0;strokeColor=#00CC00;shadow=0;" parent="FvNM7wmLF5Pf9MOmdUOy-21" vertex="1">
          <mxGeometry y="26" width="160" height="26" as="geometry" />
        </mxCell>
        <mxCell id="FvNM7wmLF5Pf9MOmdUOy-23" value="" style="line;strokeWidth=1;align=left;verticalAlign=middle;spacingTop=-1;spacingLeft=3;spacingRight=3;rotatable=0;labelPosition=right;points=[];portConstraint=eastwest;fillColor=#4d5d53;gradientColor=#7ea6e0;strokeColor=#00CC00;shadow=0;" parent="FvNM7wmLF5Pf9MOmdUOy-21" vertex="1">
          <mxGeometry y="52" width="160" height="8" as="geometry" />
        </mxCell>
        <mxCell id="FvNM7wmLF5Pf9MOmdUOy-24" value="+Görüntüler(favoriler): void" style="text;align=left;verticalAlign=top;spacingLeft=4;spacingRight=4;overflow=hidden;rotatable=0;points=[[0,0.5],[1,0.5]];portConstraint=eastwest;whiteSpace=wrap;html=1;fillColor=#4d5d53;gradientColor=#7ea6e0;strokeColor=#00CC00;shadow=0;" parent="FvNM7wmLF5Pf9MOmdUOy-21" vertex="1">
          <mxGeometry y="60" width="160" height="26" as="geometry" />
        </mxCell>
        <mxCell id="FvNM7wmLF5Pf9MOmdUOy-84" style="edgeStyle=orthogonalEdgeStyle;rounded=0;orthogonalLoop=1;jettySize=auto;html=1;exitX=0.5;exitY=1;exitDx=0;exitDy=0;entryX=0.5;entryY=0;entryDx=0;entryDy=0;strokeColor=#00CC00;fillColor=#4d5d53;shadow=0;" parent="1" source="FvNM7wmLF5Pf9MOmdUOy-25" target="FvNM7wmLF5Pf9MOmdUOy-21" edge="1">
          <mxGeometry relative="1" as="geometry" />
        </mxCell>
        <mxCell id="FvNM7wmLF5Pf9MOmdUOy-25" value="Stok Durumu" style="swimlane;fontStyle=1;align=center;verticalAlign=top;childLayout=stackLayout;horizontal=1;startSize=26;horizontalStack=0;resizeParent=1;resizeParentMax=0;resizeLast=0;collapsible=1;marginBottom=0;whiteSpace=wrap;html=1;fillColor=#4d5d53;gradientColor=#7ea6e0;strokeColor=#00CC00;shadow=0;" parent="1" vertex="1">
          <mxGeometry x="400" y="361.01" width="160" height="120" as="geometry" />
        </mxCell>
        <mxCell id="FvNM7wmLF5Pf9MOmdUOy-26" value="+ sayi: int" style="text;align=left;verticalAlign=top;spacingLeft=4;spacingRight=4;overflow=hidden;rotatable=0;points=[[0,0.5],[1,0.5]];portConstraint=eastwest;whiteSpace=wrap;html=1;fillColor=#4d5d53;gradientColor=#7ea6e0;strokeColor=#00CC00;shadow=0;" parent="FvNM7wmLF5Pf9MOmdUOy-25" vertex="1">
          <mxGeometry y="26" width="160" height="26" as="geometry" />
        </mxCell>
        <mxCell id="FvNM7wmLF5Pf9MOmdUOy-27" value="" style="line;strokeWidth=1;align=left;verticalAlign=middle;spacingTop=-1;spacingLeft=3;spacingRight=3;rotatable=0;labelPosition=right;points=[];portConstraint=eastwest;fillColor=#4d5d53;gradientColor=#7ea6e0;strokeColor=#00CC00;shadow=0;" parent="FvNM7wmLF5Pf9MOmdUOy-25" vertex="1">
          <mxGeometry y="52" width="160" height="8" as="geometry" />
        </mxCell>
        <mxCell id="FvNM7wmLF5Pf9MOmdUOy-28" value="+stokKontrol(): boolean&lt;br&gt;+stokSayisi(sayi): void" style="text;align=left;verticalAlign=top;spacingLeft=4;spacingRight=4;overflow=hidden;rotatable=0;points=[[0,0.5],[1,0.5]];portConstraint=eastwest;whiteSpace=wrap;html=1;fillColor=#4d5d53;gradientColor=#7ea6e0;strokeColor=#00CC00;shadow=0;" parent="FvNM7wmLF5Pf9MOmdUOy-25" vertex="1">
          <mxGeometry y="60" width="160" height="60" as="geometry" />
        </mxCell>
        <mxCell id="FvNM7wmLF5Pf9MOmdUOy-29" value="Oturum Çıkış" style="swimlane;fontStyle=1;align=center;verticalAlign=top;childLayout=stackLayout;horizontal=1;startSize=26;horizontalStack=0;resizeParent=1;resizeParentMax=0;resizeLast=0;collapsible=1;marginBottom=0;whiteSpace=wrap;html=1;fillColor=#4d5d53;gradientColor=#7ea6e0;strokeColor=#00CC00;shadow=0;" parent="1" vertex="1">
          <mxGeometry x="400" y="200" width="160" height="86" as="geometry" />
        </mxCell>
        <mxCell id="FvNM7wmLF5Pf9MOmdUOy-30" value="" style="text;align=left;verticalAlign=top;spacingLeft=4;spacingRight=4;overflow=hidden;rotatable=0;points=[[0,0.5],[1,0.5]];portConstraint=eastwest;whiteSpace=wrap;html=1;fillColor=#4d5d53;gradientColor=#7ea6e0;strokeColor=#00CC00;shadow=0;" parent="FvNM7wmLF5Pf9MOmdUOy-29" vertex="1">
          <mxGeometry y="26" width="160" height="26" as="geometry" />
        </mxCell>
        <mxCell id="FvNM7wmLF5Pf9MOmdUOy-31" value="" style="line;strokeWidth=1;align=left;verticalAlign=middle;spacingTop=-1;spacingLeft=3;spacingRight=3;rotatable=0;labelPosition=right;points=[];portConstraint=eastwest;fillColor=#4d5d53;gradientColor=#7ea6e0;strokeColor=#00CC00;shadow=0;" parent="FvNM7wmLF5Pf9MOmdUOy-29" vertex="1">
          <mxGeometry y="52" width="160" height="8" as="geometry" />
        </mxCell>
        <mxCell id="FvNM7wmLF5Pf9MOmdUOy-32" value="+cikisyap:(): void" style="text;align=left;verticalAlign=top;spacingLeft=4;spacingRight=4;overflow=hidden;rotatable=0;points=[[0,0.5],[1,0.5]];portConstraint=eastwest;whiteSpace=wrap;html=1;fillColor=#4d5d53;gradientColor=#7ea6e0;strokeColor=#00CC00;shadow=0;" parent="FvNM7wmLF5Pf9MOmdUOy-29" vertex="1">
          <mxGeometry y="60" width="160" height="26" as="geometry" />
        </mxCell>
        <mxCell id="FvNM7wmLF5Pf9MOmdUOy-82" style="edgeStyle=orthogonalEdgeStyle;rounded=0;orthogonalLoop=1;jettySize=auto;html=1;exitX=0.5;exitY=0;exitDx=0;exitDy=0;entryX=0.5;entryY=1;entryDx=0;entryDy=0;strokeColor=#00CC00;fillColor=#4d5d53;shadow=0;" parent="1" source="FvNM7wmLF5Pf9MOmdUOy-33" target="FvNM7wmLF5Pf9MOmdUOy-37" edge="1">
          <mxGeometry relative="1" as="geometry" />
        </mxCell>
        <mxCell id="FvNM7wmLF5Pf9MOmdUOy-33" value="Adres Bilgisi" style="swimlane;fontStyle=1;align=center;verticalAlign=top;childLayout=stackLayout;horizontal=1;startSize=26;horizontalStack=0;resizeParent=1;resizeParentMax=0;resizeLast=0;collapsible=1;marginBottom=0;whiteSpace=wrap;html=1;fillColor=#4d5d53;gradientColor=#7ea6e0;strokeColor=#00CC00;shadow=0;" parent="1" vertex="1">
          <mxGeometry x="680" y="200" width="160" height="144" as="geometry" />
        </mxCell>
        <mxCell id="FvNM7wmLF5Pf9MOmdUOy-34" value="- il: String&lt;br&gt;- ilce: String&lt;br&gt;- mahalle: String&lt;br&gt;- cadde: String&lt;br&gt;- taksim: String" style="text;align=left;verticalAlign=top;spacingLeft=4;spacingRight=4;overflow=hidden;rotatable=0;points=[[0,0.5],[1,0.5]];portConstraint=eastwest;whiteSpace=wrap;html=1;fillColor=#4d5d53;gradientColor=#7ea6e0;strokeColor=#00CC00;shadow=0;" parent="FvNM7wmLF5Pf9MOmdUOy-33" vertex="1">
          <mxGeometry y="26" width="160" height="84" as="geometry" />
        </mxCell>
        <mxCell id="FvNM7wmLF5Pf9MOmdUOy-35" value="" style="line;strokeWidth=1;align=left;verticalAlign=middle;spacingTop=-1;spacingLeft=3;spacingRight=3;rotatable=0;labelPosition=right;points=[];portConstraint=eastwest;fillColor=#4d5d53;gradientColor=#7ea6e0;strokeColor=#00CC00;shadow=0;" parent="FvNM7wmLF5Pf9MOmdUOy-33" vertex="1">
          <mxGeometry y="110" width="160" height="8" as="geometry" />
        </mxCell>
        <mxCell id="FvNM7wmLF5Pf9MOmdUOy-36" value="" style="text;align=left;verticalAlign=top;spacingLeft=4;spacingRight=4;overflow=hidden;rotatable=0;points=[[0,0.5],[1,0.5]];portConstraint=eastwest;whiteSpace=wrap;html=1;fillColor=#4d5d53;gradientColor=#7ea6e0;strokeColor=#00CC00;shadow=0;" parent="FvNM7wmLF5Pf9MOmdUOy-33" vertex="1">
          <mxGeometry y="118" width="160" height="26" as="geometry" />
        </mxCell>
        <mxCell id="FvNM7wmLF5Pf9MOmdUOy-37" value="Oturum Girişi" style="swimlane;fontStyle=1;align=center;verticalAlign=top;childLayout=stackLayout;horizontal=1;startSize=26;horizontalStack=0;resizeParent=1;resizeParentMax=0;resizeLast=0;collapsible=1;marginBottom=0;whiteSpace=wrap;html=1;fillColor=#4d5d53;gradientColor=#7ea6e0;strokeColor=#00CC00;shadow=0;" parent="1" vertex="1">
          <mxGeometry x="680" y="30" width="160" height="144" as="geometry" />
        </mxCell>
        <mxCell id="FvNM7wmLF5Pf9MOmdUOy-38" value="- e-mail: String&lt;br&gt;- sifre: String" style="text;strokeColor=#00CC00;fillColor=#4d5d53;align=left;verticalAlign=top;spacingLeft=4;spacingRight=4;overflow=hidden;rotatable=0;points=[[0,0.5],[1,0.5]];portConstraint=eastwest;whiteSpace=wrap;html=1;gradientColor=#7ea6e0;shadow=0;" parent="FvNM7wmLF5Pf9MOmdUOy-37" vertex="1">
          <mxGeometry y="26" width="160" height="84" as="geometry" />
        </mxCell>
        <mxCell id="FvNM7wmLF5Pf9MOmdUOy-39" value="" style="line;strokeWidth=1;fillColor=#4d5d53;align=left;verticalAlign=middle;spacingTop=-1;spacingLeft=3;spacingRight=3;rotatable=0;labelPosition=right;points=[];portConstraint=eastwest;strokeColor=#00CC00;gradientColor=#7ea6e0;shadow=0;" parent="FvNM7wmLF5Pf9MOmdUOy-37" vertex="1">
          <mxGeometry y="110" width="160" height="8" as="geometry" />
        </mxCell>
        <mxCell id="FvNM7wmLF5Pf9MOmdUOy-40" value="+ gırısKontrol(): boolean" style="text;strokeColor=#00CC00;fillColor=#4d5d53;align=left;verticalAlign=top;spacingLeft=4;spacingRight=4;overflow=hidden;rotatable=0;points=[[0,0.5],[1,0.5]];portConstraint=eastwest;whiteSpace=wrap;html=1;gradientColor=#7ea6e0;shadow=0;" parent="FvNM7wmLF5Pf9MOmdUOy-37" vertex="1">
          <mxGeometry y="118" width="160" height="26" as="geometry" />
        </mxCell>
        <mxCell id="FvNM7wmLF5Pf9MOmdUOy-41" value="Ödeme Yöntemi" style="swimlane;fontStyle=1;align=center;verticalAlign=top;childLayout=stackLayout;horizontal=1;startSize=26;horizontalStack=0;resizeParent=1;resizeParentMax=0;resizeLast=0;collapsible=1;marginBottom=0;whiteSpace=wrap;html=1;fillColor=#4d5d53;gradientColor=#7ea6e0;strokeColor=#00CC00;shadow=0;" parent="1" vertex="1">
          <mxGeometry x="680" y="361.01" width="160" height="140" as="geometry" />
        </mxCell>
        <mxCell id="FvNM7wmLF5Pf9MOmdUOy-42" value="- kartno: int&lt;br&gt;- sktarih: DateTime&lt;br&gt;- cv: int" style="text;align=left;verticalAlign=top;spacingLeft=4;spacingRight=4;overflow=hidden;rotatable=0;points=[[0,0.5],[1,0.5]];portConstraint=eastwest;whiteSpace=wrap;html=1;fillColor=#4d5d53;gradientColor=#7ea6e0;strokeColor=#00CC00;shadow=0;" parent="FvNM7wmLF5Pf9MOmdUOy-41" vertex="1">
          <mxGeometry y="26" width="160" height="64" as="geometry" />
        </mxCell>
        <mxCell id="FvNM7wmLF5Pf9MOmdUOy-43" value="" style="line;strokeWidth=1;align=left;verticalAlign=middle;spacingTop=-1;spacingLeft=3;spacingRight=3;rotatable=0;labelPosition=right;points=[];portConstraint=eastwest;fillColor=#4d5d53;gradientColor=#7ea6e0;strokeColor=#00CC00;shadow=0;" parent="FvNM7wmLF5Pf9MOmdUOy-41" vertex="1">
          <mxGeometry y="90" width="160" height="8" as="geometry" />
        </mxCell>
        <mxCell id="FvNM7wmLF5Pf9MOmdUOy-44" value="+ kartDegistir(kartno, sktarih, cv): void" style="text;align=left;verticalAlign=top;spacingLeft=4;spacingRight=4;overflow=hidden;rotatable=0;points=[[0,0.5],[1,0.5]];portConstraint=eastwest;whiteSpace=wrap;html=1;fillColor=#4d5d53;gradientColor=#7ea6e0;strokeColor=#00CC00;shadow=0;" parent="FvNM7wmLF5Pf9MOmdUOy-41" vertex="1">
          <mxGeometry y="98" width="160" height="42" as="geometry" />
        </mxCell>
        <mxCell id="FvNM7wmLF5Pf9MOmdUOy-45" value="Sepet Durumu" style="swimlane;fontStyle=1;align=center;verticalAlign=top;childLayout=stackLayout;horizontal=1;startSize=26;horizontalStack=0;resizeParent=1;resizeParentMax=0;resizeLast=0;collapsible=1;marginBottom=0;whiteSpace=wrap;html=1;fillColor=#4d5d53;gradientColor=#7ea6e0;strokeColor=#00CC00;shadow=0;" parent="1" vertex="1">
          <mxGeometry x="680" y="550" width="160" height="120" as="geometry" />
        </mxCell>
        <mxCell id="FvNM7wmLF5Pf9MOmdUOy-46" value="" style="text;align=left;verticalAlign=top;spacingLeft=4;spacingRight=4;overflow=hidden;rotatable=0;points=[[0,0.5],[1,0.5]];portConstraint=eastwest;whiteSpace=wrap;html=1;fillColor=#4d5d53;gradientColor=#7ea6e0;strokeColor=#00CC00;shadow=0;" parent="FvNM7wmLF5Pf9MOmdUOy-45" vertex="1">
          <mxGeometry y="26" width="160" height="26" as="geometry" />
        </mxCell>
        <mxCell id="FvNM7wmLF5Pf9MOmdUOy-47" value="" style="line;strokeWidth=1;align=left;verticalAlign=middle;spacingTop=-1;spacingLeft=3;spacingRight=3;rotatable=0;labelPosition=right;points=[];portConstraint=eastwest;fillColor=#4d5d53;gradientColor=#7ea6e0;strokeColor=#00CC00;shadow=0;" parent="FvNM7wmLF5Pf9MOmdUOy-45" vertex="1">
          <mxGeometry y="52" width="160" height="8" as="geometry" />
        </mxCell>
        <mxCell id="FvNM7wmLF5Pf9MOmdUOy-48" value="+sepetGüncelle(): void&lt;br&gt;+sepetOnayla(): boolean&amp;nbsp;" style="text;align=left;verticalAlign=top;spacingLeft=4;spacingRight=4;overflow=hidden;rotatable=0;points=[[0,0.5],[1,0.5]];portConstraint=eastwest;whiteSpace=wrap;html=1;fillColor=#4d5d53;gradientColor=#7ea6e0;strokeColor=#00CC00;shadow=0;" parent="FvNM7wmLF5Pf9MOmdUOy-45" vertex="1">
          <mxGeometry y="60" width="160" height="60" as="geometry" />
        </mxCell>
        <mxCell id="FvNM7wmLF5Pf9MOmdUOy-50" value="Kredi Kartı" style="html=1;whiteSpace=wrap;fillColor=#4d5d53;gradientColor=#7ea6e0;strokeColor=#00CC00;shadow=0;" parent="1" vertex="1">
          <mxGeometry x="910" y="361.01" width="90" height="30" as="geometry" />
        </mxCell>
        <mxCell id="FvNM7wmLF5Pf9MOmdUOy-51" value="Kapıda Ödeme" style="html=1;whiteSpace=wrap;fillColor=#4d5d53;gradientColor=#7ea6e0;strokeColor=#00CC00;shadow=0;" parent="1" vertex="1">
          <mxGeometry x="910" y="417.01" width="90" height="30" as="geometry" />
        </mxCell>
        <mxCell id="FvNM7wmLF5Pf9MOmdUOy-52" value="" style="triangle;whiteSpace=wrap;html=1;direction=west;fillColor=#4d5d53;gradientColor=#7ea6e0;strokeColor=#00CC00;shadow=0;" parent="1" vertex="1">
          <mxGeometry x="840" y="384.26" width="20" height="32.75" as="geometry" />
        </mxCell>
        <mxCell id="FvNM7wmLF5Pf9MOmdUOy-53" value="" style="endArrow=none;html=1;rounded=0;fillColor=#4d5d53;gradientColor=#b3b3b3;strokeColor=#00CC00;shadow=0;" parent="1" edge="1">
          <mxGeometry width="50" height="50" relative="1" as="geometry">
            <mxPoint x="880" y="400" as="sourcePoint" />
            <mxPoint x="860" y="400.14" as="targetPoint" />
            <Array as="points" />
          </mxGeometry>
        </mxCell>
        <mxCell id="FvNM7wmLF5Pf9MOmdUOy-54" value="" style="endArrow=none;html=1;rounded=0;fillColor=#4d5d53;gradientColor=#b3b3b3;strokeColor=#00CC00;shadow=0;" parent="1" edge="1">
          <mxGeometry width="50" height="50" relative="1" as="geometry">
            <mxPoint x="880" y="375.01" as="sourcePoint" />
            <mxPoint x="880" y="430" as="targetPoint" />
            <Array as="points" />
          </mxGeometry>
        </mxCell>
        <mxCell id="FvNM7wmLF5Pf9MOmdUOy-55" value="" style="endArrow=none;html=1;rounded=0;exitX=0;exitY=0.5;exitDx=0;exitDy=0;fillColor=#4d5d53;gradientColor=#b3b3b3;strokeColor=#00CC00;shadow=0;" parent="1" source="FvNM7wmLF5Pf9MOmdUOy-51" edge="1">
          <mxGeometry width="50" height="50" relative="1" as="geometry">
            <mxPoint x="900" y="431.51" as="sourcePoint" />
            <mxPoint x="880" y="431.65" as="targetPoint" />
            <Array as="points" />
          </mxGeometry>
        </mxCell>
        <mxCell id="FvNM7wmLF5Pf9MOmdUOy-56" value="" style="endArrow=none;html=1;rounded=0;exitX=0;exitY=0.5;exitDx=0;exitDy=0;fillColor=#4d5d53;gradientColor=#b3b3b3;strokeColor=#00CC00;shadow=0;" parent="1" source="FvNM7wmLF5Pf9MOmdUOy-50" edge="1">
          <mxGeometry width="50" height="50" relative="1" as="geometry">
            <mxPoint x="900" y="375.51" as="sourcePoint" />
            <mxPoint x="880" y="375.65" as="targetPoint" />
            <Array as="points" />
          </mxGeometry>
        </mxCell>
        <mxCell id="FvNM7wmLF5Pf9MOmdUOy-57" value="Kullanıcı" style="html=1;whiteSpace=wrap;fillColor=#4d5d53;gradientColor=#7ea6e0;strokeColor=#00CC00;shadow=0;" parent="1" vertex="1">
          <mxGeometry x="910" y="40" width="90" height="30" as="geometry" />
        </mxCell>
        <mxCell id="FvNM7wmLF5Pf9MOmdUOy-58" value="Admin" style="html=1;whiteSpace=wrap;fillColor=#4d5d53;gradientColor=#7ea6e0;strokeColor=#00CC00;shadow=0;" parent="1" vertex="1">
          <mxGeometry x="910" y="96" width="90" height="30" as="geometry" />
        </mxCell>
        <mxCell id="FvNM7wmLF5Pf9MOmdUOy-59" value="" style="triangle;whiteSpace=wrap;html=1;direction=west;fillColor=#4d5d53;gradientColor=#7ea6e0;strokeColor=#00CC00;shadow=0;" parent="1" vertex="1">
          <mxGeometry x="840" y="63.25" width="20" height="32.75" as="geometry" />
        </mxCell>
        <mxCell id="FvNM7wmLF5Pf9MOmdUOy-60" value="" style="endArrow=none;html=1;rounded=0;fillColor=#4d5d53;gradientColor=#b3b3b3;strokeColor=#00CC00;shadow=0;" parent="1" edge="1">
          <mxGeometry width="50" height="50" relative="1" as="geometry">
            <mxPoint x="880" y="78.99000000000001" as="sourcePoint" />
            <mxPoint x="860" y="79.13" as="targetPoint" />
            <Array as="points" />
          </mxGeometry>
        </mxCell>
        <mxCell id="FvNM7wmLF5Pf9MOmdUOy-61" value="" style="endArrow=none;html=1;rounded=0;fillColor=#4d5d53;gradientColor=#b3b3b3;strokeColor=#00CC00;shadow=0;" parent="1" edge="1">
          <mxGeometry width="50" height="50" relative="1" as="geometry">
            <mxPoint x="880" y="54" as="sourcePoint" />
            <mxPoint x="880" y="110" as="targetPoint" />
            <Array as="points" />
          </mxGeometry>
        </mxCell>
        <mxCell id="FvNM7wmLF5Pf9MOmdUOy-63" value="" style="endArrow=none;html=1;rounded=0;exitX=0;exitY=0.5;exitDx=0;exitDy=0;fillColor=#4d5d53;gradientColor=#b3b3b3;strokeColor=#00CC00;shadow=0;" parent="1" source="FvNM7wmLF5Pf9MOmdUOy-57" edge="1">
          <mxGeometry width="50" height="50" relative="1" as="geometry">
            <mxPoint x="900" y="54.5" as="sourcePoint" />
            <mxPoint x="880" y="54.639999999999986" as="targetPoint" />
            <Array as="points" />
          </mxGeometry>
        </mxCell>
        <mxCell id="FvNM7wmLF5Pf9MOmdUOy-64" value="" style="endArrow=none;html=1;rounded=0;exitX=0;exitY=0.5;exitDx=0;exitDy=0;fillColor=#4d5d53;gradientColor=#b3b3b3;strokeColor=#00CC00;shadow=0;" parent="1" edge="1">
          <mxGeometry width="50" height="50" relative="1" as="geometry">
            <mxPoint x="910" y="110.86" as="sourcePoint" />
            <mxPoint x="880" y="110.49999999999999" as="targetPoint" />
            <Array as="points" />
          </mxGeometry>
        </mxCell>
        <mxCell id="FvNM7wmLF5Pf9MOmdUOy-69" value="" style="endArrow=none;html=1;rounded=0;fillColor=#4d5d53;gradientColor=#b3b3b3;strokeColor=#00CC00;shadow=0;" parent="1" edge="1">
          <mxGeometry width="50" height="50" relative="1" as="geometry">
            <mxPoint x="80" y="360" as="sourcePoint" />
            <mxPoint x="80" y="440" as="targetPoint" />
          </mxGeometry>
        </mxCell>
        <mxCell id="FvNM7wmLF5Pf9MOmdUOy-70" value="" style="endArrow=none;html=1;rounded=0;fillColor=#4d5d53;gradientColor=#b3b3b3;strokeColor=#00CC00;shadow=0;" parent="1" edge="1">
          <mxGeometry width="50" height="50" relative="1" as="geometry">
            <mxPoint x="40" y="360" as="sourcePoint" />
            <mxPoint x="80" y="360" as="targetPoint" />
          </mxGeometry>
        </mxCell>
        <mxCell id="FvNM7wmLF5Pf9MOmdUOy-71" value="" style="endArrow=none;html=1;rounded=0;fillColor=#4d5d53;gradientColor=#b3b3b3;strokeColor=#00CC00;shadow=0;" parent="1" edge="1">
          <mxGeometry width="50" height="50" relative="1" as="geometry">
            <mxPoint x="40" y="400.13" as="sourcePoint" />
            <mxPoint x="80" y="400.13" as="targetPoint" />
          </mxGeometry>
        </mxCell>
        <mxCell id="FvNM7wmLF5Pf9MOmdUOy-72" value="" style="endArrow=none;html=1;rounded=0;fillColor=#4d5d53;gradientColor=#b3b3b3;strokeColor=#00CC00;shadow=0;" parent="1" edge="1">
          <mxGeometry width="50" height="50" relative="1" as="geometry">
            <mxPoint x="40" y="440" as="sourcePoint" />
            <mxPoint x="80" y="440" as="targetPoint" />
          </mxGeometry>
        </mxCell>
        <mxCell id="FvNM7wmLF5Pf9MOmdUOy-73" value="" style="endArrow=diamondThin;endFill=0;endSize=24;html=1;rounded=0;exitX=0.5;exitY=0;exitDx=0;exitDy=0;entryX=0.5;entryY=1.108;entryDx=0;entryDy=0;entryPerimeter=0;fillColor=#4d5d53;gradientColor=#7ea6e0;strokeColor=#00CC00;shadow=0;" parent="1" source="FvNM7wmLF5Pf9MOmdUOy-13" target="FvNM7wmLF5Pf9MOmdUOy-20" edge="1">
          <mxGeometry width="160" relative="1" as="geometry">
            <mxPoint x="410" y="340" as="sourcePoint" />
            <mxPoint x="200" y="290" as="targetPoint" />
          </mxGeometry>
        </mxCell>
        <mxCell id="FvNM7wmLF5Pf9MOmdUOy-74" value="" style="endArrow=diamondThin;endFill=1;endSize=24;html=1;rounded=0;exitX=0.01;exitY=0.123;exitDx=0;exitDy=0;exitPerimeter=0;strokeColor=#00CC00;fillColor=#4d5d53;shadow=0;" parent="1" source="FvNM7wmLF5Pf9MOmdUOy-9" edge="1">
          <mxGeometry width="160" relative="1" as="geometry">
            <mxPoint x="450" y="340" as="sourcePoint" />
            <mxPoint x="280" y="55" as="targetPoint" />
          </mxGeometry>
        </mxCell>
        <mxCell id="FvNM7wmLF5Pf9MOmdUOy-75" value="" style="endArrow=diamondThin;endFill=1;endSize=24;html=1;rounded=0;entryX=0.99;entryY=-0.032;entryDx=0;entryDy=0;entryPerimeter=0;strokeColor=#00CC00;fillColor=#4d5d53;shadow=0;" parent="1" target="FvNM7wmLF5Pf9MOmdUOy-2" edge="1">
          <mxGeometry width="160" relative="1" as="geometry">
            <mxPoint x="400" y="210" as="sourcePoint" />
            <mxPoint x="293" y="65" as="targetPoint" />
            <Array as="points">
              <mxPoint x="360" y="210" />
              <mxPoint x="360" y="160" />
              <mxPoint x="360" y="80" />
            </Array>
          </mxGeometry>
        </mxCell>
        <mxCell id="FvNM7wmLF5Pf9MOmdUOy-77" value="" style="endArrow=diamondThin;endFill=0;endSize=24;html=1;rounded=0;exitX=1.01;exitY=0.121;exitDx=0;exitDy=0;fillColor=#4d5d53;gradientColor=#7ea6e0;strokeColor=#00CC00;exitPerimeter=0;entryX=0.005;entryY=0.158;entryDx=0;entryDy=0;entryPerimeter=0;shadow=0;" parent="1" source="QwfjyQOuluvTNZlcwb4u-74" target="FvNM7wmLF5Pf9MOmdUOy-21" edge="1">
          <mxGeometry width="160" relative="1" as="geometry">
            <mxPoint x="210" y="371" as="sourcePoint" />
            <mxPoint x="400" y="530" as="targetPoint" />
          </mxGeometry>
        </mxCell>
        <mxCell id="FvNM7wmLF5Pf9MOmdUOy-78" value="" style="endArrow=diamondThin;endFill=1;endSize=24;html=1;rounded=0;entryX=0.495;entryY=1.13;entryDx=0;entryDy=0;entryPerimeter=0;exitX=0.5;exitY=0;exitDx=0;exitDy=0;strokeColor=#00CC00;fillColor=#4d5d53;shadow=0;" parent="1" source="FvNM7wmLF5Pf9MOmdUOy-45" target="FvNM7wmLF5Pf9MOmdUOy-44" edge="1">
          <mxGeometry width="160" relative="1" as="geometry">
            <mxPoint x="430" y="340" as="sourcePoint" />
            <mxPoint x="590" y="340" as="targetPoint" />
          </mxGeometry>
        </mxCell>
        <mxCell id="FvNM7wmLF5Pf9MOmdUOy-79" value="" style="endArrow=diamondThin;endFill=1;endSize=24;html=1;rounded=0;entryX=0.5;entryY=0;entryDx=0;entryDy=0;strokeColor=#00CC00;fillColor=#4d5d53;shadow=0;" parent="1" target="FvNM7wmLF5Pf9MOmdUOy-1" edge="1">
          <mxGeometry width="160" relative="1" as="geometry">
            <mxPoint x="700" y="30" as="sourcePoint" />
            <mxPoint x="180" y="30" as="targetPoint" />
            <Array as="points">
              <mxPoint x="700" />
              <mxPoint x="560" />
              <mxPoint x="430" />
              <mxPoint x="200" />
            </Array>
          </mxGeometry>
        </mxCell>
        <mxCell id="FvNM7wmLF5Pf9MOmdUOy-81" value="" style="endArrow=diamondThin;endFill=1;endSize=24;html=1;rounded=0;entryX=-0.02;entryY=0.322;entryDx=0;entryDy=0;entryPerimeter=0;strokeColor=#00CC00;fillColor=#4d5d53;shadow=0;" parent="1" target="FvNM7wmLF5Pf9MOmdUOy-4" edge="1">
          <mxGeometry width="160" relative="1" as="geometry">
            <mxPoint x="140" y="360" as="sourcePoint" />
            <mxPoint x="290" y="65" as="targetPoint" />
            <Array as="points">
              <mxPoint x="140" y="320" />
              <mxPoint x="100" y="320" />
              <mxPoint x="40" y="320" />
              <mxPoint x="40" y="250" />
              <mxPoint x="40" y="200" />
              <mxPoint x="40" y="153" />
            </Array>
          </mxGeometry>
        </mxCell>
        <mxCell id="FvNM7wmLF5Pf9MOmdUOy-83" value="" style="endArrow=diamondThin;endFill=1;endSize=24;html=1;rounded=0;entryX=1;entryY=0.768;entryDx=0;entryDy=0;entryPerimeter=0;strokeColor=#00CC00;fillColor=#4d5d53;shadow=0;" parent="1" target="FvNM7wmLF5Pf9MOmdUOy-2" edge="1">
          <mxGeometry width="160" relative="1" as="geometry">
            <mxPoint x="280" y="220" as="sourcePoint" />
            <mxPoint x="330" y="300" as="targetPoint" />
            <Array as="points">
              <mxPoint x="320" y="220" />
              <mxPoint x="320" y="200" />
              <mxPoint x="320" y="120" />
            </Array>
          </mxGeometry>
        </mxCell>
        <mxCell id="FvNM7wmLF5Pf9MOmdUOy-85" value="" style="endArrow=diamondThin;endFill=0;endSize=24;html=1;rounded=0;fillColor=#4d5d53;gradientColor=#7ea6e0;strokeColor=#00CC00;entryX=0.005;entryY=0.077;entryDx=0;entryDy=0;exitX=1.025;exitY=0.132;exitDx=0;exitDy=0;exitPerimeter=0;entryPerimeter=0;shadow=0;" parent="1" source="FvNM7wmLF5Pf9MOmdUOy-25" target="FvNM7wmLF5Pf9MOmdUOy-45" edge="1">
          <mxGeometry width="160" relative="1" as="geometry">
            <mxPoint x="620" y="370" as="sourcePoint" />
            <mxPoint x="411" y="544" as="targetPoint" />
            <Array as="points">
              <mxPoint x="640" y="377" />
              <mxPoint x="640" y="559" />
            </Array>
          </mxGeometry>
        </mxCell>
      </root>
    </mxGraphModel>
  </diagram>
</mxfile>
